<svg xmlns="http://www.w3.org/2000/svg" width="24" height="24" viewBox="-2 -2 24 24"><path fill="#c00" d="M0 1.43C0 .64.64 0 1.43 0h17.13C19.35 0 20 .64 20 1.43v17.13c0 .79-.65 1.44-1.44 1.44H1.43C.64 20 0 19.35 0 18.56Zm0 0"/><path fill="#fff" d="M7.88 11.42v4.29H5.37V3.52h4.75c.92 0 1.72.17 2.42.5.69.34 1.22.81 1.6 1.43.37.62.56 1.32.56 2.11 0 1.19-.41 2.13-1.22 2.82-.82.69-1.95 1.04-3.4 1.04Zm0-2.04h2.24c.67 0 1.18-.15 1.52-.47.35-.31.53-.75.53-1.34s-.18-1.07-.53-1.45c-.35-.36-.84-.55-1.46-.56h-2.3Zm0 0"/></svg>