<svg xmlns="http://www.w3.org/2000/svg" xmlns:xlink="http://www.w3.org/1999/xlink" viewBox="0 0 36 36"><use xlink:href="#ytp-svg-mix" stroke="#000" stroke-opacity=".15" stroke-width="2"/><path id="ytp-svg-mix" fill="#fff" d="M25.65 18c-.02 2.31-.87 4.41-2.25 6.06l.9.94c1.69-1.8 2.7-4.27 2.7-7s-1.01-5.21-2.7-7l-.9.93A9.54 9.54 0 0 1 25.65 18m-15.3 0c.01-2.32.86-4.42 2.25-6.07l-.9-.93C10 12.79 9 15.27 9 18s1 5.2 2.7 7l.9-.94c-1.39-1.65-2.24-3.75-2.25-6.06m2.7 0c-.04-1.73.49-3.09 1.35-4.2l-.9-.94c-1.13 1.26-1.8 2.99-1.8 5.14 0 1.67.67 3.4 1.8 4.66l.9-.93c-.86-1.12-1.39-2.47-1.35-3.73m9-5.14-.9.94c.85 1.11 1.38 2.47 1.35 4.2.03 1.26-.5 2.61-1.35 3.73l.9.93c1.12-1.26 1.8-2.99 1.8-4.66 0-2.15-.68-3.88-1.8-5.14m-5.55 2.8 3.6 1.87-3.6 2.33z"/></svg>