<svg xmlns="http://www.w3.org/2000/svg" width="30" height="12" fill="none"><path fill="#fff" fill-rule="evenodd" d="M22.7 11c2.95 0 5.3-2.21 5.3-5s-2.35-5-5.3-5H7.3C4.35 1 2 3.21 2 6s2.35 5 5.3 5z" clip-rule="evenodd" opacity=".5"/><path fill="#000" fill-opacity=".3" fill-rule="evenodd" d="M7.3 1C4.35 1 2 3.21 2 6s2.35 5 5.3 5h15.4A5.16 5.16 0 0 0 28 6l-.03-.54A5.16 5.16 0 0 0 22.7 1zm15.4 11c3.45 0 6.3-2.6 6.3-6s-2.85-6-6.3-6H7.3C3.85 0 1 2.6 1 6s2.85 6 6.3 6z" clip-rule="evenodd" opacity=".5"/></svg>