<svg xmlns="http://www.w3.org/2000/svg" width="36" height="36" fill="none" viewBox="0 0 36 36"><path fill="#fff" d="M12.75 4.5h-3c-.6 0-1.17.23-1.6.65-.42.43-.65 1-.65 1.6v22.5c0 .59.23 1.16.65 1.59.43.42 1 .66 1.6.66h3c.59 0 1.16-.24 1.59-.66.42-.43.66-1 .66-1.59V6.75c0-.6-.24-1.17-.66-1.6-.43-.42-1-.65-1.59-.65m13.5 0h-3c-.6 0-1.17.23-1.6.65-.42.43-.65 1-.65 1.6v22.5c0 .59.23 1.16.65 1.59.43.42 1 .66 1.6.66h3c.59 0 1.16-.24 1.59-.66.42-.43.66-1 .66-1.59V6.75c0-.6-.24-1.17-.66-1.6-.43-.42-1-.65-1.59-.65"/></svg>